<svg xmlns="http://www.w3.org/2000/svg" version="1.1" xmlns:xlink="http://www.w3.org/1999/xlink" xmlns:svgjs="http://svgjs.dev/svgjs" width="1440" height="800" preserveAspectRatio="none" viewBox="0 0 1440 800"><g mask="url(&quot;#SvgjsMask1056&quot;)" fill="none"><rect width="1440" height="800" x="0" y="0" fill="#0e2a47"></rect><path d="M0,499.091C90.691,479.894,145.044,390.749,206.543,321.387C253.499,268.427,279.345,205.001,314.975,143.844C355.312,74.608,418.184,17.491,429.787,-61.794C443.352,-154.489,449.609,-265.783,384.822,-333.451C319.861,-401.3,206.07,-368.796,114.758,-390.831C29.237,-411.469,-47.324,-468.876,-134.724,-458.828C-229.275,-447.958,-323.148,-405.936,-384.77,-333.405C-446.172,-261.133,-474.926,-161.746,-467.442,-67.208C-460.572,19.579,-378.197,77.12,-345.873,157.955C-311.151,244.787,-338.165,356.924,-271.584,422.593C-203.239,490.002,-93.914,518.97,0,499.091" fill="#0b2037"></path><path d="M1440 1503.402C1572.915 1498.786 1700.69 1451.329 1808.84 1373.926 1913.6019999999999 1298.949 2010.277 1199.359 2039.978 1074.001 2068.0280000000002 955.612 2002.8400000000001 839.686 1962.624 724.858 1929.638 630.673 1879.298 549.737 1826.6689999999999 464.949 1763.425 363.06 1737.296 213.101 1622.811 177.40300000000002 1508.62 141.79600000000005 1408.342 267.76300000000003 1292.734 298.459 1172.656 330.342 1029.06 281.93100000000004 932.8910000000001 360.587 834.524 441.041 797.377 579.9970000000001 793.223 707.008 789.278 827.636 868.068 928.819 910.614 1041.763 956.921 1164.693 955.313 1313.795 1054.319 1400.1309999999999 1156.7 1489.4099999999999 1304.242 1508.117 1440 1503.402" fill="#113457"></path></g><defs><mask id="SvgjsMask1056"><rect width="1440" height="800" fill="#ffffff"></rect></mask></defs></svg>